<?xml version="1.0" encoding="UTF-8"?>
<svg xmlns="http://www.w3.org/2000/svg" version="1.1" viewBox="0 0 1336.91 188.99">
  <!-- Generator: Adobe Illustrator 29.1.0, SVG Export Plug-In . SVG Version: 2.1.0 Build 142)  -->
  <defs>
    <style>
      .st0 {
        fill: #fff;
      }
    </style>
  </defs>
  <g id="Logo">
    <g>
      <g>
        <path class="st0" d="M394.82,29.15l-22.74,67.9,4.19-1.56,4.56,12.67-6.34,1.66-3.46-9.65-1.23,3.68,2.35,6.57-4.99,1.3-1.7,5.08,9.12,25.57h61.45l-41.21-113.24ZM423.15,118.51l-10.72,1.48-5.51-15.13,10.38-2.47,5.85,16.11ZM394.99,107.7l8.56-2.03,5.34,14.81-8.84,1.22-5.06-14ZM396.81,122.15l-7.61,1.05-4.69-13.01,7.37-1.75,4.94,13.71ZM410.22,82.89l5.83,16.07-10.3,2.69-5.49-15.06,9.96-3.7ZM397.09,87.77l5.32,14.76-8.5,2.22-5.03-13.93,8.21-3.05ZM378.86,94.53l7.06-2.62,4.91,13.64-7.31,1.91-4.66-12.93ZM381.8,110.84l4.59,12.75-6.63.92-4.36-12.15,6.4-1.52ZM367.4,114.26l5.65-1.34,4.27,11.93-5.81.8-4.11-11.39ZM376.52,139.55l-4.14-11.48,5.85-.68,4.3,12-6.01.15ZM385.08,139.33l-4.38-12.23,29.35-3.41,5.36,14.88-30.33.76ZM413.62,123.28l10.8-1.25,5.87,16.18-11.13.28-5.54-15.2Z"/>
        <path class="st0" d="M347.43,62.82l-29.03,79.56h35.73l39.46-116.63c-19.72,20.6-29.15,28.02-46.15,37.07Z"/>
      </g>
      <g>
        <g>
          <path class="st0" d="M559.3,125.99h-17.1l-4.86-12.42h-26.37l-4.86,12.42h-17.1l25.65-63h18.81l25.83,63ZM514.75,102.15h18.72l-9.36-23.22-9.36,23.22Z"/>
          <path class="st0" d="M618.67,75.51l-12.42,6.93c-3.6-4.59-8.37-6.84-14.22-6.84-5.22,0-9.63,1.8-13.14,5.49s-5.22,8.1-5.22,13.41,1.71,9.81,5.22,13.5c3.51,3.69,7.92,5.49,13.14,5.49,5.85,0,10.62-2.34,14.22-6.93l12.42,7.02c-6.12,8.19-15.93,13.32-26.73,13.32-17.91.45-33.57-14.85-33.12-32.4-.45-17.55,15.21-32.76,33.12-32.4,10.8,0,20.61,5.13,26.73,13.41Z"/>
          <path class="st0" d="M685.88,125.99h-19.17l-24.39-28.53v28.53h-14.4v-63h14.4v13.41l11.25,12.24,14.76-25.65h18.36l-23.67,37.08,22.86,25.92Z"/>
          <polygon class="st0" points="468.62 63 468.62 87.84 441.93 87.84 441.93 63 427.62 63 427.62 96.5 438.35 125.99 441.93 125.99 441.93 100.71 468.62 100.71 468.62 125.99 483.02 125.99 483.02 63 468.62 63"/>
        </g>
        <g>
          <path class="st0" d="M63,63h32.58c13.23,0,20.61,5.49,20.61,15.93,0,6.93-3.24,11.61-9.81,14.04,8.73,2.43,12.6,8.46,12.6,15.93,0,8.55-5.22,17.1-21.69,17.1h-34.29v-63ZM77.31,89.19h14.13c6.21,0,9.81-2.52,9.81-7.2s-3.42-7.29-9.81-7.29h-14.13v14.49ZM77.31,114.3h16.47c7.2,0,10.26-3.33,10.26-7.74s-3.06-7.83-10.26-7.83h-16.47v15.57Z"/>
          <path class="st0" d="M158.82,62.1c12.15,0,23.04,6.12,29.07,16.11,2.97,4.95,4.5,10.44,4.5,16.29,0,11.79-6.39,22.32-16.74,28.08-5.13,2.88-10.8,4.32-16.83,4.32-12.15,0-23.04-6.12-29.07-16.11-2.97-4.95-4.5-10.44-4.5-16.29,0-11.79,6.39-22.32,16.74-28.08,5.13-2.88,10.8-4.32,16.83-4.32ZM140.1,94.5c0,10.53,8.01,18.9,18.72,18.9,5.31,0,9.81-1.8,13.32-5.49,3.51-3.69,5.31-8.1,5.31-13.41s-1.8-9.72-5.31-13.41c-3.51-3.69-8.01-5.49-13.32-5.49-10.71,0-18.72,8.37-18.72,18.9Z"/>
          <path class="st0" d="M201.35,63h14.31v20.34h10.17l3.42.09,13.32-20.43h16.56l-15.03,22.32c9.09,2.79,13.14,8.91,13.14,19.35,0,15.03-8.1,21.33-27.99,21.33h-27.9v-63ZM229.96,113.04c9,0,12.42-2.7,12.42-9.27s-3.42-9.27-12.42-9.27h-14.31v18.54h14.31Z"/>
          <polygon class="st0" points="311.85 125.99 315.99 125.99 325.89 98.78 325.89 63 310.95 63 281.62 102.6 281.62 63 267.49 63 267.49 125.99 282.43 125.99 311.85 86.4 311.85 125.99"/>
        </g>
      </g>
    </g>
  </g>
  <g id="Media_Archive">
    <g>
      <path class="st0" d="M749.66,126v-63h6.93l25.38,50.94h-2.61l25.29-50.94h7.02v63h-5.04v-58.77l1.17.27-25.92,52.29h-2.34l-26.01-52.29,1.26-.27v58.77h-5.13Z"/>
      <path class="st0" d="M835.79,125.05c-2.46-1.23-4.59-2.89-6.39-5-1.8-2.1-3.23-4.57-4.27-7.42-1.05-2.85-1.58-5.89-1.58-9.13,0-2.16.22-4.24.67-6.25.45-2.01,1.11-3.87,1.98-5.58.87-1.71,1.9-3.29,3.1-4.72,1.2-1.44,2.52-2.66,3.96-3.65,1.44-.99,3.02-1.77,4.73-2.34,1.71-.57,3.49-.85,5.35-.85,1.38,0,2.7.15,3.96.45,1.26.3,2.46.72,3.6,1.26,1.14.54,2.22,1.19,3.24,1.94,1.02.75,1.92,1.61,2.7,2.57,1.86,2.16,3.31,4.72,4.37,7.69,1.05,2.97,1.58,6.14,1.58,9.5v1.8h-36.54v-2.79h34.11l-2.25,1.62c0-3.06-.35-5.89-1.03-8.5-.69-2.61-1.75-4.81-3.2-6.62-.6-.78-1.29-1.5-2.07-2.16-.78-.66-1.61-1.2-2.47-1.62-.87-.42-1.82-.75-2.83-.99-1.02-.24-2.07-.36-3.15-.36-1.44,0-2.81.23-4.09.68-1.29.45-2.51,1.11-3.65,1.98-1.14.87-2.16,1.91-3.06,3.11s-1.67,2.52-2.29,3.96c-.63,1.44-1.12,3-1.49,4.68-.36,1.68-.54,3.42-.54,5.22,0,2.94.42,5.6,1.26,7.96.84,2.37,1.96,4.43,3.38,6.17,1.41,1.74,3.09,3.08,5.04,4,1.95.93,3.94,1.4,5.98,1.4,2.58,0,4.96-.55,7.16-1.67,2.19-1.11,4.12-2.68,5.8-4.73l2.88,2.52c-2.1,2.4-4.53,4.29-7.29,5.67s-5.7,2.07-8.82,2.07c-2.76,0-5.37-.62-7.83-1.85Z"/>
      <path class="st0" d="M881.6,125.05c-2.34-1.23-4.35-2.89-6.03-5-1.68-2.1-3-4.57-3.96-7.42-.96-2.85-1.44-5.89-1.44-9.13,0-2.16.19-4.24.58-6.25.39-2.01,1-3.87,1.84-5.58.84-1.71,1.83-3.29,2.97-4.72,1.14-1.44,2.41-2.66,3.82-3.65,1.41-.99,2.94-1.77,4.59-2.34,1.65-.57,3.4-.85,5.26-.85,2.94,0,5.68.71,8.24,2.11,2.55,1.41,4.87,3.65,6.97,6.71l-.54,3.87c-1.44-2.52-3.3-4.53-5.58-6.03-2.28-1.5-4.77-2.25-7.47-2.25-2.16,0-4.19.48-6.08,1.44-1.89.96-3.55,2.31-5,4.05-1.44,1.74-2.58,3.77-3.42,6.08-.84,2.31-1.26,4.79-1.26,7.42s.42,5.03,1.26,7.33c.84,2.31,1.98,4.34,3.42,6.08,1.44,1.74,3.11,3.1,5,4.09s3.92,1.49,6.08,1.49c2.64,0,5.07-.73,7.29-2.21,2.22-1.47,4.23-3.67,6.03-6.62l.36,4.5c-2.04,2.88-4.35,5.06-6.93,6.53-2.58,1.47-5.37,2.21-8.37,2.21-2.76,0-5.31-.62-7.65-1.85ZM903.65,126v-63h5.04v63h-5.04Z"/>
      <path class="st0" d="M922.91,70.96c-.42-.15-.77-.36-1.04-.63-.27-.27-.48-.57-.63-.9-.15-.33-.23-.7-.23-1.12,0-.36.06-.72.18-1.08.12-.36.33-.67.63-.94.3-.27.63-.48.99-.63.36-.15.75-.22,1.17-.22.48,0,.88.08,1.21.22.33.15.64.36.94.63.3.27.53.58.68.94.15.36.22.72.22,1.08,0,.42-.08.8-.22,1.12-.15.33-.38.63-.68.9-.3.27-.62.48-.94.63-.33.15-.74.23-1.21.23-.3,0-.66-.07-1.08-.23ZM921.56,126v-45h5.04v45h-5.04Z"/>
      <path class="st0" d="M944.51,125.86c-1.68-.69-3.12-1.67-4.32-2.92-1.2-1.26-2.15-2.79-2.83-4.59-.69-1.8-1.04-3.78-1.04-5.94s.37-4.17,1.12-5.85c.75-1.68,1.77-3.07,3.06-4.18,1.29-1.11,2.91-1.93,4.86-2.47,1.95-.54,4.12-.81,6.53-.81h17.01v2.43h-15.39c-1.86,0-3.55.21-5.08.63-1.53.42-2.83,1.05-3.92,1.89-1.08.84-1.91,1.93-2.47,3.29-.57,1.35-.85,2.9-.85,4.63s.25,3.33.76,4.77c.51,1.44,1.24,2.67,2.21,3.69.96,1.02,2.1,1.82,3.42,2.38,1.32.57,2.79.86,4.41.86,3.12,0,6-.54,8.64-1.62,2.64-1.08,5.16-2.82,7.56-5.22l.09,2.34c-2.64,2.64-5.46,4.59-8.46,5.85-3,1.26-6.27,1.89-9.81,1.89-1.98,0-3.81-.35-5.49-1.04ZM967.1,126v-28.53c0-2.28-.29-4.23-.86-5.85-.57-1.62-1.43-3-2.56-4.14-.48-.6-1.04-1.09-1.67-1.49-.63-.39-1.32-.72-2.07-.99-.75-.27-1.55-.48-2.38-.63-.84-.15-1.68-.23-2.52-.23-2.52,0-4.95.48-7.29,1.44-2.34.96-4.59,2.37-6.75,4.23l-1.71-3.33c2.64-2.1,5.36-3.69,8.15-4.77,2.79-1.08,5.71-1.62,8.77-1.62,1.14,0,2.22.08,3.24.23,1.02.15,1.99.39,2.92.72.93.33,1.83.74,2.7,1.21.87.48,1.63,1.08,2.29,1.8,1.44,1.38,2.58,3.1,3.42,5.18.84,2.07,1.26,4.63,1.26,7.7v29.07h-4.95Z"/>
      <path class="st0" d="M996.79,126l24.12-63h6.66l24.12,63h-5.94l-6.84-18.36,1.44.9h-32.49l1.71-.81-6.84,18.27h-5.94ZM1010.2,105.29l-.72-.9h29.34l-.45.99-14.49-38.25h.72l-14.4,38.16Z"/>
      <path class="st0" d="M1059.7,126v-45h5.04v45h-5.04ZM1063.75,90.9c1.56-1.86,3.09-3.46,4.59-4.82,1.5-1.35,3.04-2.48,4.63-3.38,1.59-.9,3.21-1.56,4.86-1.98,1.65-.42,3.34-.63,5.08-.63v4.23c-3.54,0-6.87.87-9.99,2.61-3.12,1.74-6.09,4.38-8.91,7.92l-.27-3.96Z"/>
      <path class="st0" d="M1098.27,125.05c-2.49-1.23-4.67-2.89-6.52-5-1.86-2.1-3.33-4.57-4.41-7.42-1.08-2.85-1.62-5.89-1.62-9.13s.54-6.28,1.62-9.13c1.08-2.85,2.55-5.32,4.41-7.42,1.86-2.1,4.03-3.77,6.52-5,2.49-1.23,5.14-1.84,7.97-1.84,3.18,0,6.12.75,8.82,2.25,2.7,1.5,5.01,3.54,6.93,6.12l-3.87,2.25c-1.38-1.92-3.11-3.43-5.18-4.55-2.07-1.11-4.22-1.67-6.43-1.67s-4.2.5-6.12,1.49c-1.92.99-3.6,2.36-5.04,4.09-1.44,1.74-2.58,3.77-3.42,6.08-.84,2.31-1.26,4.76-1.26,7.33s.42,5.12,1.26,7.42c.84,2.31,1.98,4.34,3.42,6.08,1.44,1.74,3.12,3.09,5.04,4.05,1.92.96,3.96,1.44,6.12,1.44,2.52,0,4.8-.6,6.84-1.8,2.04-1.2,3.78-2.91,5.22-5.13l3.87,2.34c-1.92,2.76-4.27,4.95-7.06,6.57s-5.84,2.43-9.13,2.43c-2.82,0-5.48-.62-7.97-1.85Z"/>
      <path class="st0" d="M1132.24,126v-63h5.04v63h-5.04ZM1164.46,126v-27.54c0-2.52-.33-4.74-.99-6.66-.66-1.92-1.59-3.48-2.79-4.68-.9-.96-2.01-1.67-3.33-2.12-1.32-.45-2.76-.67-4.32-.67-2.88,0-5.78.72-8.68,2.16-2.91,1.44-5.51,3.45-7.79,6.03l-.63-3.42c1.44-1.5,2.94-2.8,4.5-3.92,1.56-1.11,3.13-2.04,4.72-2.79,1.59-.75,3.22-1.32,4.91-1.71,1.68-.39,3.3-.58,4.86-.58,1.92,0,3.69.29,5.31.85,1.62.57,3.09,1.46,4.41,2.65,1.56,1.44,2.75,3.3,3.55,5.58.81,2.28,1.21,5.01,1.21,8.19v28.62h-4.95Z"/>
      <path class="st0" d="M1183,70.96c-.42-.15-.77-.36-1.04-.63-.27-.27-.48-.57-.63-.9-.15-.33-.23-.7-.23-1.12,0-.36.06-.72.18-1.08.12-.36.33-.67.63-.94.3-.27.63-.48.99-.63.36-.15.75-.22,1.17-.22.48,0,.88.08,1.21.22.33.15.64.36.94.63.3.27.53.58.68.94.15.36.22.72.22,1.08,0,.42-.08.8-.22,1.12-.15.33-.38.63-.68.9-.3.27-.62.48-.94.63-.33.15-.74.23-1.21.23-.3,0-.66-.07-1.08-.23ZM1181.65,126v-45h5.04v45h-5.04Z"/>
      <path class="st0" d="M1210.72,126l-16.92-45h5.4l15.3,42.21h-1.26l15.21-42.21h5.49l-16.83,45h-6.39Z"/>
      <path class="st0" d="M1248.88,125.05c-2.46-1.23-4.59-2.89-6.39-5-1.8-2.1-3.23-4.57-4.27-7.42-1.05-2.85-1.58-5.89-1.58-9.13,0-2.16.22-4.24.67-6.25.45-2.01,1.11-3.87,1.98-5.58.87-1.71,1.9-3.29,3.1-4.72,1.2-1.44,2.52-2.66,3.96-3.65,1.44-.99,3.02-1.77,4.73-2.34,1.71-.57,3.49-.85,5.35-.85,1.38,0,2.7.15,3.96.45,1.26.3,2.46.72,3.6,1.26,1.14.54,2.22,1.19,3.24,1.94,1.02.75,1.92,1.61,2.7,2.57,1.86,2.16,3.31,4.72,4.37,7.69,1.05,2.97,1.58,6.14,1.58,9.5v1.8h-36.54v-2.79h34.11l-2.25,1.62c0-3.06-.35-5.89-1.03-8.5-.69-2.61-1.75-4.81-3.2-6.62-.6-.78-1.29-1.5-2.07-2.16-.78-.66-1.61-1.2-2.47-1.62-.87-.42-1.82-.75-2.83-.99-1.02-.24-2.07-.36-3.15-.36-1.44,0-2.81.23-4.09.68-1.29.45-2.51,1.11-3.65,1.98-1.14.87-2.16,1.91-3.06,3.11s-1.67,2.52-2.29,3.96c-.63,1.44-1.12,3-1.49,4.68-.36,1.68-.54,3.42-.54,5.22,0,2.94.42,5.6,1.26,7.96.84,2.37,1.96,4.43,3.38,6.17,1.41,1.74,3.09,3.08,5.04,4,1.95.93,3.94,1.4,5.98,1.4,2.58,0,4.96-.55,7.16-1.67,2.19-1.11,4.12-2.68,5.8-4.73l2.88,2.52c-2.1,2.4-4.53,4.29-7.29,5.67s-5.7,2.07-8.82,2.07c-2.76,0-5.37-.62-7.83-1.85Z"/>
    </g>
  </g>
</svg>