<?xml version="1.0" encoding="UTF-8" standalone="no"?>
<!DOCTYPE svg PUBLIC "-//W3C//DTD SVG 1.1//EN" "http://www.w3.org/Graphics/SVG/1.1/DTD/svg11.dtd">
<svg width="100%" height="100%" viewBox="0 0 83 83" version="1.1" xmlns="http://www.w3.org/2000/svg" xmlns:xlink="http://www.w3.org/1999/xlink" xml:space="preserve" style="fill-rule:evenodd;clip-rule:evenodd;stroke-linejoin:round;stroke-miterlimit:1.41421;">
    <g transform="matrix(0.18412,0,0,0.18412,-20.4152,-58.7633)">
        <g id="Aufgabenart--Kontur-0-8-">
            <g id="computer-Video-neu">
                <g id="Computer" transform="matrix(1,0,0,1,0,20.3692)">
                    <g id="Fuss" transform="matrix(1,0,0,1,0,4.39134)">
                        <path d="M302.04,646.36C297.908,646.36 294.557,649.711 294.557,653.843L294.557,686.517L266.739,686.517C261.727,686.517 257.714,690.587 257.714,695.599L257.714,699.426C257.714,704.439 261.727,708.452 266.739,708.452L398.809,708.452C403.821,708.452 407.834,704.439 407.834,699.426L407.834,695.599C407.834,690.587 403.821,686.517 398.809,686.517L371.334,686.517L371.334,653.843C371.334,649.711 368.041,646.36 363.908,646.36L302.045,646.36L302.04,646.36Z" style="fill:rgb(64,64,64);fill-rule:nonzero;stroke-width:10.3px;stroke:black;"/>
                    </g>
                    <g id="Rahmen" transform="matrix(1.43082e-16,-2.33671,-2.33671,-1.43082e-16,627.331,1275.51)">
                        <path d="M287.76,46.679C282.124,46.679 277.572,51.199 277.572,56.835L277.572,194.895C277.572,200.531 282.124,205.083 287.76,205.083L388.04,205.083C393.676,205.083 398.196,200.531 398.196,194.895L398.196,59.361C398.196,59.361 399.075,46.923 387.389,46.676C385.672,46.64 287.752,46.676 287.752,46.676L287.76,46.679Z" style="fill:white;fill-rule:nonzero;stroke-width:5.96px;stroke-linecap:round;stroke:black;"/>
                    </g>
                    <g transform="matrix(4.28086,0,0,4.39134,129.039,312.013)">
                        <path d="M89.394,68.53L5.481,68.704" style="fill:none;stroke-width:3.65px;stroke-linecap:round;stroke:black;"/>
                    </g>
                    <g id="path4092" transform="matrix(1.31137,0,0,1.39881,-127.056,-170.509)">
                        <path d="M350.98,560.09C353.797,560.092 356.114,562.266 356.114,564.907C356.114,567.549 353.795,569.723 350.976,569.723C348.158,569.723 345.838,567.549 345.838,564.907C345.838,562.347 348.015,560.212 350.742,560.095" style="fill:white;fill-rule:nonzero;"/>
                    </g>
                </g>
                <g id="Video" transform="matrix(4.20272,0,0,4.20272,148.246,297.706)">
                    <g transform="matrix(1,0,0,0.752733,3.55271e-15,10.928)">
                        <rect x="13.169" y="17.008" width="61.264" height="60.149" style="fill:rgb(242,242,242);"/>
                        <g transform="matrix(1,0,0,1,-4.44089e-15,-5.94179)">
                            <rect x="17.848" y="23.362" width="6.485" height="6.956" style="fill:rgb(128,128,128);"/>
                            <g transform="matrix(1,0,0,1,0,8.78425)">
                                <rect x="17.848" y="23.362" width="6.485" height="6.956" style="fill:rgb(128,128,128);"/>
                            </g>
                            <g transform="matrix(1,0,0,1,0,17.5805)">
                                <rect x="17.848" y="23.362" width="6.485" height="6.956" style="fill:rgb(128,128,128);"/>
                            </g>
                            <g transform="matrix(1,0,0,1,0,26.3647)">
                                <rect x="17.848" y="23.362" width="6.485" height="6.956" style="fill:rgb(128,128,128);"/>
                            </g>
                            <g transform="matrix(1,0,0,1,0,35.1991)">
                                <rect x="17.848" y="23.362" width="6.485" height="6.956" style="fill:rgb(128,128,128);"/>
                            </g>
                            <g transform="matrix(1,0,0,1,0,43.9954)">
                                <rect x="17.848" y="23.362" width="6.485" height="6.956" style="fill:rgb(128,128,128);"/>
                            </g>
                            <g transform="matrix(1,0,0,1,0,52.7796)">
                                <rect x="17.848" y="23.362" width="6.485" height="6.956" style="fill:rgb(128,128,128);"/>
                            </g>
                        </g>
                        <g transform="matrix(1,0,0,1,45.0684,-5.94179)">
                            <rect x="17.848" y="23.362" width="6.485" height="6.956" style="fill:rgb(128,128,128);"/>
                            <g transform="matrix(1,0,0,1,0,8.78425)">
                                <rect x="17.848" y="23.362" width="6.485" height="6.956" style="fill:rgb(128,128,128);"/>
                            </g>
                            <g transform="matrix(1,0,0,1,0,17.5805)">
                                <rect x="17.848" y="23.362" width="6.485" height="6.956" style="fill:rgb(128,128,128);"/>
                            </g>
                            <g transform="matrix(1,0,0,1,0,26.3647)">
                                <rect x="17.848" y="23.362" width="6.485" height="6.956" style="fill:rgb(128,128,128);"/>
                            </g>
                            <g transform="matrix(1,0,0,1,0,35.1991)">
                                <rect x="17.848" y="23.362" width="6.485" height="6.956" style="fill:rgb(128,128,128);"/>
                            </g>
                            <g transform="matrix(1,0,0,1,0,43.9954)">
                                <rect x="17.848" y="23.362" width="6.485" height="6.956" style="fill:rgb(128,128,128);"/>
                            </g>
                            <g transform="matrix(1,0,0,1,0,52.7796)">
                                <rect x="17.848" y="23.362" width="6.485" height="6.956" style="fill:rgb(128,128,128);"/>
                            </g>
                        </g>
                        <rect x="13.169" y="17.008" width="61.264" height="60.149" style="fill:none;stroke-width:3.73px;stroke:rgb(115,115,115);"/>
                    </g>
                    <g transform="matrix(1,0,0,1,-0.141781,0.938473)">
                        <path d="M36.822,33.621L36.814,57.239L57.366,45.899L36.822,33.621Z" style="fill:rgb(153,153,153);"/>
                        <path d="M57.366,45.899L36.814,57.239L36.822,33.621L57.366,45.899ZM39.878,52.051L51.219,45.793L39.883,39.018L39.878,52.051Z" style="fill:black;"/>
                    </g>
                </g>
            </g>
        </g>
    </g>
</svg>
